simulation
nRows=62
nColumns=15
endheader
time  TH_x TH_y TH_z SC_y  SC_z  SC_x  AC_y  AC_z  AC_x  GH_y  GH_z  GH_yy  EL_x  PS_y
1.550000  0.000000  0.000000  0.000000  -32.829611  3.460504  11.148467  54.676387  22.242203  -2.048906  21.531206  53.438599  -21.000205  18.274431  0.000000
1.560000  0.000000  0.000000  0.000000  -32.848956  3.471803  11.110350  54.679648  22.386102  -1.990917  21.523177  53.545691  -21.070549  18.257600  0.000000
1.570000  0.000000  0.000000  0.000000  -32.868021  3.481742  11.069343  54.683164  22.526225  -1.933864  21.516759  53.646579  -21.140085  18.241290  0.000000
1.580000  0.000000  0.000000  0.000000  -32.886799  3.490317  11.025450  54.686935  22.662536  -1.877759  21.511940  53.741238  -21.208795  18.225506  0.000000
1.590000  0.000000  0.000000  0.000000  -32.905284  3.497523  10.978673  54.690963  22.795001  -1.822614  21.508708  53.829649  -21.276663  18.210251  0.000000
1.600000  0.000000  0.000000  0.000000  -32.923469  3.503356  10.929017  54.695249  22.923586  -1.768438  21.507053  53.911791  -21.343671  18.195527  0.000000
1.610000  0.000000  0.000000  0.000000  -32.941348  3.507813  10.876486  54.699793  23.048261  -1.715243  21.506964  53.987646  -21.409802  18.181340  0.000000
1.620000  0.000000  0.000000  0.000000  -32.958914  3.510890  10.821087  54.704595  23.168993  -1.663039  21.508428  54.057195  -21.475039  18.167691  0.000000
1.630000  0.000000  0.000000  0.000000  -32.976161  3.512587  10.762828  54.709655  23.285754  -1.611836  21.511435  54.120423  -21.539367  18.154585  0.000000
1.640000  0.000000  0.000000  0.000000  -32.993083  3.512900  10.701717  54.714973  23.398516  -1.561644  21.515973  54.177316  -21.602769  18.142024  0.000000
1.650000  0.000000  0.000000  0.000000  -33.009673  3.511828  10.637764  54.720549  23.507252  -1.512472  21.522030  54.227860  -21.665229  18.130012  0.000000
1.660000  0.000000  0.000000  0.000000  -33.025925  3.509371  10.570979  54.726382  23.611935  -1.464329  21.529594  54.272042  -21.726731  18.118550  0.000000
1.670000  0.000000  0.000000  0.000000  -33.041832  3.505529  10.501375  54.732472  23.712543  -1.417226  21.538655  54.309853  -21.787260  18.107643  0.000000
1.680000  0.000000  0.000000  0.000000  -33.057389  3.500301  10.428965  54.738817  23.809050  -1.371169  21.549200  54.341282  -21.846799  18.097292  0.000000
1.690000  0.000000  0.000000  0.000000  -33.072590  3.493688  10.353761  54.745417  23.901436  -1.326168  21.561217  54.366323  -21.905334  18.087500  0.000000
1.700000  0.000000  0.000000  0.000000  -33.087428  3.485692  10.275780  54.752269  23.989679  -1.282230  21.574695  54.384967  -21.962850  18.078270  0.000000
1.710000  0.000000  0.000000  0.000000  -33.101896  3.476313  10.195037  54.759373  24.073761  -1.239365  21.589621  54.397211  -22.019331  18.069604  0.000000
1.720000  0.000000  0.000000  0.000000  -33.115990  3.465556  10.111550  54.766727  24.153662  -1.197578  21.605984  54.403049  -22.074763  18.061504  0.000000
1.730000  0.000000  0.000000  0.000000  -33.129703  3.453421  10.025337  54.774328  24.229366  -1.156878  21.623772  54.402480  -22.129132  18.053973  0.000000
1.740000  0.000000  0.000000  0.000000  -33.143028  3.439912  9.936418  54.782175  24.300857  -1.117271  21.642972  54.395502  -22.182423  18.047012  0.000000
1.750000  0.000000  0.000000  0.000000  -33.155961  3.425034  9.844812  54.790265  24.368120  -1.078764  21.663572  54.382115  -22.234622  18.040624  0.000000
1.760000  0.000000  0.000000  0.000000  -33.168494  3.408790  9.750542  54.798596  24.431142  -1.041364  21.685560  54.362320  -22.285715  18.034810  0.000000
1.770000  0.000000  0.000000  0.000000  -33.180623  3.391184  9.653630  54.807164  24.489912  -1.005077  21.708924  54.336120  -22.335688  18.029572  0.000000
1.780000  0.000000  0.000000  0.000000  -33.192341  3.372224  9.554100  54.815967  24.544417  -0.969909  21.733651  54.303519  -22.384529  18.024912  0.000000
1.790000  0.000000  0.000000  0.000000  -33.203642  3.351913  9.451977  54.825002  24.594648  -0.935865  21.759729  54.264523  -22.432223  18.020831  0.000000
1.800000  0.000000  0.000000  0.000000  -33.214521  3.330259  9.347286  54.834265  24.640598  -0.902950  21.787145  54.219138  -22.478757  18.017331  0.000000
1.810000  0.000000  0.000000  0.000000  -33.224972  3.307267  9.240054  54.843752  24.682258  -0.871171  21.815887  54.167373  -22.524118  18.014413  0.000000
1.820000  0.000000  0.000000  0.000000  -33.234989  3.282947  9.130311  54.853460  24.719623  -0.840531  21.845942  54.109236  -22.568295  18.012078  0.000000
1.830000  0.000000  0.000000  0.000000  -33.244566  3.257304  9.018083  54.863385  24.752688  -0.811035  21.877298  54.044738  -22.611273  18.010328  0.000000
1.840000  0.000000  0.000000  0.000000  -33.253699  3.230348  8.903403  54.873522  24.781450  -0.782687  21.909941  53.973892  -22.653041  18.009163  0.000000
1.850000  0.000000  0.000000  0.000000  -33.262380  3.202088  8.786302  54.883868  24.805906  -0.755492  21.943859  53.896711  -22.693587  18.008584  0.000000
1.860000  0.000000  0.000000  0.000000  -33.270605  3.172532  8.666811  54.894417  24.826056  -0.729453  21.979040  53.813209  -22.732898  18.008593  0.000000
1.870000  0.000000  0.000000  0.000000  -33.278367  3.141691  8.544964  54.905164  24.841899  -0.704573  22.015469  53.723403  -22.770963  18.009190  0.000000
1.880000  0.000000  0.000000  0.000000  -33.285663  3.109574  8.420795  54.916105  24.853438  -0.680856  22.053135  53.627311  -22.807771  18.010375  0.000000
1.890000  0.000000  0.000000  0.000000  -33.292485  3.076193  8.294342  54.927235  24.860674  -0.658304  22.092024  53.524950  -22.843309  18.012149  0.000000
1.900000  0.000000  0.000000  0.000000  -33.298829  3.041560  8.165639  54.938548  24.863613  -0.636921  22.132123  53.416341  -22.877567  18.014513  0.000000
1.910000  0.000000  0.000000  0.000000  -33.304689  3.005685  8.034725  54.950037  24.862258  -0.616707  22.173418  53.301506  -22.910533  18.017466  0.000000
1.920000  0.000000  0.000000  0.000000  -33.310060  2.968581  7.901639  54.961699  24.856616  -0.597666  22.215898  53.180467  -22.942197  18.021010  0.000000
1.930000  0.000000  0.000000  0.000000  -33.314936  2.930261  7.766420  54.973525  24.846696  -0.579799  22.259547  53.053248  -22.972548  18.025143  0.000000
1.940000  0.000000  0.000000  0.000000  -33.319312  2.890739  7.629111  54.985511  24.832505  -0.563108  22.304354  52.919875  -23.001576  18.029867  0.000000
1.950000  0.000000  0.000000  0.000000  -33.323183  2.850029  7.489752  54.997650  24.814055  -0.547593  22.350304  52.780375  -23.029271  18.035180  0.000000
1.960000  0.000000  0.000000  0.000000  -33.326543  2.808144  7.348388  55.009934  24.791356  -0.533257  22.397384  52.634775  -23.055622  18.041084  0.000000
1.970000  0.000000  0.000000  0.000000  -33.329388  2.765099  7.205062  55.022358  24.764420  -0.520098  22.445581  52.483106  -23.080619  18.047577  0.000000
1.980000  0.000000  0.000000  0.000000  -33.331712  2.720911  7.059820  55.034914  24.733263  -0.508118  22.494880  52.325397  -23.104254  18.054659  0.000000
1.990000  0.000000  0.000000  0.000000  -33.333510  2.675595  6.912708  55.047594  24.697898  -0.497317  22.545269  52.161682  -23.126516  18.062329  0.000000
2.000000  0.000000  0.000000  0.000000  -33.334777  2.629167  6.763774  55.060392  24.658343  -0.487695  22.596734  51.991993  -23.147396  18.070588  0.000000
2.010000  0.000000  0.000000  0.000000  -33.335508  2.581644  6.613067  55.073300  24.614614  -0.479251  22.649260  51.816366  -23.166885  18.079433  0.000000
2.020000  0.000000  0.000000  0.000000  -33.335698  2.533044  6.460636  55.086309  24.566730  -0.471984  22.702834  51.634836  -23.184975  18.088866  0.000000
2.030000  0.000000  0.000000  0.000000  -33.335342  2.483385  6.306532  55.099412  24.514712  -0.465894  22.757442  51.447441  -23.201657  18.098883  0.000000
2.040000  0.000000  0.000000  0.000000  -33.334434  2.432685  6.150807  55.112601  24.458580  -0.460978  22.813071  51.254220  -23.216921  18.109485  0.000000
2.050000  0.000000  0.000000  0.000000  -33.332971  2.380963  5.993514  55.125866  24.398358  -0.457237  22.869705  51.055214  -23.230761  18.120671  0.000000
2.060000  0.000000  0.000000  0.000000  -33.330946  2.328238  5.834706  55.139200  24.334068  -0.454667  22.927331  50.850462  -23.243167  18.132438  0.000000
2.070000  0.000000  0.000000  0.000000  -33.328356  2.274531  5.674440  55.152592  24.265736  -0.453266  22.985935  50.640010  -23.254132  18.144786  0.000000
2.080000  0.000000  0.000000  0.000000  -33.325195  2.219862  5.512772  55.166035  24.193388  -0.453033  23.045503  50.423900  -23.263648  18.157714  0.000000
2.090000  0.000000  0.000000  0.000000  -33.321458  2.164252  5.349757  55.179519  24.117050  -0.453964  23.106019  50.202178  -23.271708  18.171219  0.000000
2.100000  0.000000  0.000000  0.000000  -33.317142  2.107722  5.185456  55.193034  24.036753  -0.456057  23.167471  49.974891  -23.278304  18.185301  0.000000
2.110000  0.000000  0.000000  0.000000  -33.312240  2.050295  5.019928  55.206571  23.952526  -0.459308  23.229844  49.742087  -23.283429  18.199957  0.000000
2.120000  0.000000  0.000000  0.000000  -33.306749  1.991992  4.853232  55.220120  23.864399  -0.463713  23.293122  49.503816  -23.287077  18.215185  0.000000
2.130000  0.000000  0.000000  0.000000  -33.300664  1.932838  4.685431  55.233670  23.772406  -0.469270  23.357292  49.260128  -23.289240  18.230984  0.000000
2.140000  0.000000  0.000000  0.000000  -33.293979  1.872855  4.516587  55.247211  23.676579  -0.475974  23.422339  49.011076  -23.289912  18.247352  0.000000
2.150000  0.000000  0.000000  0.000000  -33.286692  1.812067  4.346765  55.260733  23.576954  -0.483820  23.488248  48.756714  -23.289086  18.264286  0.000000
2.160000  0.000000  0.000000  0.000000  -33.278796  1.750499  4.176029  55.274225  23.473567  -0.492805  23.555005  48.497096  -23.286757  18.281784  0.000000
